<mxfile host="app.diagrams.net" modified="2021-06-10T14:25:07.500Z" agent="5.0 (Macintosh; Intel Mac OS X 10_15_7) AppleWebKit/537.36 (KHTML, like Gecko) Chrome/90.0.4430.93 Safari/537.36" etag="lbE2Dc8GOGyLWfqdpG_e" version="13.9.2" type="github">
  <diagram id="gcs7_qLHjLeMVAddFFKn" name="Page-1">
    <mxGraphModel dx="1298" dy="727" grid="1" gridSize="10" guides="1" tooltips="1" connect="1" arrows="1" fold="1" page="1" pageScale="1" pageWidth="827" pageHeight="800" math="0" shadow="0">
      <root>
        <mxCell id="0" />
        <mxCell id="1" parent="0" />
        <mxCell id="38FZYthl2X9QsImfCYX1-1" value="" style="rounded=0;whiteSpace=wrap;html=1;" vertex="1" parent="1">
          <mxGeometry x="160" y="170" width="516" height="310" as="geometry" />
        </mxCell>
        <mxCell id="38FZYthl2X9QsImfCYX1-2" value="&lt;font style=&quot;font-size: 14px&quot;&gt;我是弹幕&lt;/font&gt;" style="rounded=0;whiteSpace=wrap;html=1;fillColor=#dae8fc;strokeColor=#6c8ebf;" vertex="1" parent="1">
          <mxGeometry x="200" y="190" width="120" height="30" as="geometry" />
        </mxCell>
        <mxCell id="38FZYthl2X9QsImfCYX1-3" value="&lt;font style=&quot;font-size: 14px&quot;&gt;我是弹幕&lt;/font&gt;" style="rounded=0;whiteSpace=wrap;html=1;fillColor=#dae8fc;strokeColor=#6c8ebf;" vertex="1" parent="1">
          <mxGeometry x="290" y="230" width="120" height="30" as="geometry" />
        </mxCell>
        <mxCell id="38FZYthl2X9QsImfCYX1-4" value="&lt;font style=&quot;font-size: 14px&quot;&gt;我是弹幕&lt;/font&gt;" style="rounded=0;whiteSpace=wrap;html=1;fillColor=#dae8fc;strokeColor=#6c8ebf;" vertex="1" parent="1">
          <mxGeometry x="358" y="190" width="202" height="30" as="geometry" />
        </mxCell>
        <mxCell id="38FZYthl2X9QsImfCYX1-5" value="&lt;font style=&quot;font-size: 14px&quot;&gt;我是弹幕&lt;/font&gt;" style="rounded=0;whiteSpace=wrap;html=1;fillColor=#dae8fc;strokeColor=#6c8ebf;" vertex="1" parent="1">
          <mxGeometry x="190" y="270" width="120" height="30" as="geometry" />
        </mxCell>
        <mxCell id="38FZYthl2X9QsImfCYX1-6" value="&lt;font style=&quot;font-size: 14px&quot;&gt;我是弹幕&lt;/font&gt;" style="rounded=0;whiteSpace=wrap;html=1;fillColor=#dae8fc;strokeColor=#6c8ebf;" vertex="1" parent="1">
          <mxGeometry x="340" y="270" width="120" height="30" as="geometry" />
        </mxCell>
        <mxCell id="38FZYthl2X9QsImfCYX1-7" value="&lt;font style=&quot;font-size: 14px&quot;&gt;我是弹幕&lt;/font&gt;" style="rounded=0;whiteSpace=wrap;html=1;fillColor=#dae8fc;strokeColor=#6c8ebf;" vertex="1" parent="1">
          <mxGeometry x="460" y="230" width="260" height="30" as="geometry" />
        </mxCell>
        <mxCell id="38FZYthl2X9QsImfCYX1-8" value="&lt;font style=&quot;font-size: 14px&quot;&gt;我是弹幕&lt;/font&gt;" style="rounded=0;whiteSpace=wrap;html=1;fillColor=#dae8fc;strokeColor=#6c8ebf;" vertex="1" parent="1">
          <mxGeometry x="530" y="270" width="120" height="30" as="geometry" />
        </mxCell>
        <mxCell id="38FZYthl2X9QsImfCYX1-9" value="&lt;font style=&quot;font-size: 14px&quot;&gt;我是弹幕&lt;/font&gt;" style="rounded=0;whiteSpace=wrap;html=1;fillColor=#d5e8d4;strokeColor=#82b366;" vertex="1" parent="1">
          <mxGeometry x="690" y="190" width="120" height="30" as="geometry" />
        </mxCell>
        <mxCell id="38FZYthl2X9QsImfCYX1-10" value="&lt;font style=&quot;font-size: 14px&quot;&gt;我是弹幕&lt;/font&gt;" style="rounded=0;whiteSpace=wrap;html=1;fillColor=#d5e8d4;strokeColor=#82b366;" vertex="1" parent="1">
          <mxGeometry x="690" y="270" width="120" height="30" as="geometry" />
        </mxCell>
        <mxCell id="38FZYthl2X9QsImfCYX1-11" value="&lt;font style=&quot;font-size: 14px&quot;&gt;我是弹幕&lt;/font&gt;" style="rounded=0;whiteSpace=wrap;html=1;fillColor=#f8cecc;strokeColor=#b85450;" vertex="1" parent="1">
          <mxGeometry x="20" y="190" width="120" height="30" as="geometry" />
        </mxCell>
        <mxCell id="38FZYthl2X9QsImfCYX1-12" value="&lt;font style=&quot;font-size: 14px&quot;&gt;我是弹幕&lt;/font&gt;" style="rounded=0;whiteSpace=wrap;html=1;fillColor=#f8cecc;strokeColor=#b85450;" vertex="1" parent="1">
          <mxGeometry x="10" y="270" width="140" height="30" as="geometry" />
        </mxCell>
        <mxCell id="38FZYthl2X9QsImfCYX1-13" value="&lt;font style=&quot;font-size: 14px&quot;&gt;我是弹幕&lt;/font&gt;" style="rounded=0;whiteSpace=wrap;html=1;fillColor=#f8cecc;strokeColor=#b85450;" vertex="1" parent="1">
          <mxGeometry x="30" y="230" width="120" height="30" as="geometry" />
        </mxCell>
        <mxCell id="38FZYthl2X9QsImfCYX1-14" value="&lt;b&gt;&lt;font style=&quot;font-size: 22px&quot;&gt;弹幕池&lt;/font&gt;&lt;/b&gt;" style="text;html=1;strokeColor=none;fillColor=none;align=center;verticalAlign=middle;whiteSpace=wrap;rounded=0;" vertex="1" parent="1">
          <mxGeometry x="35" y="120" width="90" height="50" as="geometry" />
        </mxCell>
        <mxCell id="38FZYthl2X9QsImfCYX1-16" value="&lt;b&gt;&lt;font style=&quot;font-size: 22px&quot;&gt;弹幕池&lt;/font&gt;&lt;/b&gt;" style="text;html=1;strokeColor=none;fillColor=none;align=center;verticalAlign=middle;whiteSpace=wrap;rounded=0;" vertex="1" parent="1">
          <mxGeometry x="35" y="120" width="90" height="50" as="geometry" />
        </mxCell>
        <mxCell id="38FZYthl2X9QsImfCYX1-17" value="&lt;span style=&quot;font-size: 22px&quot;&gt;&lt;b&gt;舞台&lt;/b&gt;&lt;/span&gt;" style="text;html=1;strokeColor=none;fillColor=none;align=center;verticalAlign=middle;whiteSpace=wrap;rounded=0;" vertex="1" parent="1">
          <mxGeometry x="369" y="110" width="90" height="50" as="geometry" />
        </mxCell>
        <mxCell id="38FZYthl2X9QsImfCYX1-18" value="&lt;b&gt;&lt;font style=&quot;font-size: 22px&quot;&gt;新弹幕&lt;/font&gt;&lt;/b&gt;" style="text;html=1;strokeColor=none;fillColor=none;align=center;verticalAlign=middle;whiteSpace=wrap;rounded=0;" vertex="1" parent="1">
          <mxGeometry x="705" y="120" width="90" height="50" as="geometry" />
        </mxCell>
      </root>
    </mxGraphModel>
  </diagram>
</mxfile>
